<svg xmlns="http://www.w3.org/2000/svg" xmlns:xlink="http://www.w3.org/1999/xlink" version="1.1" x="0px" y="0px" viewBox="0 0 100 100" style="enable-background:new 0 0 100 100;" xml:space="preserve"><g><circle cx="18.8" cy="38.4" r="5.7"></circle><path d="M18.8,44.1c-6.5,0-11.7,5.2-11.7,11.7V59h23.4v-3.2C30.5,49.3,25.3,44.1,18.8,44.1z"></path></g><g><circle cx="48.6" cy="39.1" r="5.7"></circle><path d="M48.6,44.9c-6.5,0-11.7,5.2-11.7,11.7v3.2h23.4v-3.2C60.2,50.1,55,44.9,48.6,44.9z"></path></g><g><circle cx="78.3" cy="39.5" r="5.7"></circle><path d="M78.3,45.2c-6.5,0-11.7,5.2-11.7,11.7v3.2H90v-3.2C90,50.5,84.8,45.2,78.3,45.2z"></path></g><g><circle cx="63.4" cy="45.2" r="5.7"></circle><path d="M63.4,51c-6.5,0-11.7,5.2-11.7,11.7v3.2h23.4v-3.2C75.1,56.2,69.9,51,63.4,51z"></path></g><g><circle cx="33.7" cy="44.9" r="5.7"></circle><path d="M33.7,50.6c-6.5,0-11.7,5.2-11.7,11.7v3.2h23.4v-3.2C45.4,55.8,40.1,50.6,33.7,50.6z"></path></g></svg>