<svg xmlns="http://www.w3.org/2000/svg" xmlns:xlink="http://www.w3.org/1999/xlink" version="1.1" x="0px" y="0px" viewBox="0 0 64 64" enable-background="new 0 0 64 64" xml:space="preserve"><g display="none"><rect x="-28.077" y="-324.113" display="inline" fill="#000000" width="824.576" height="414.113"></rect></g><g display="none"><circle display="inline" fill="#000000" cx="32" cy="32" r="32"></circle><polyline display="inline" fill="#000000" points="50.701,51.17 50.701,11.057 16.724,11.057 16.724,56.361 45.51,56.361    45.51,56.361 50.701,51.17  "></polyline><polygon display="inline" fill="#000000" points="43.806,54.661 15,54.661 15,9.328 49,9.328 49,49.467  "></polygon><line display="inline" fill="#000000" stroke="#E0E0E0" stroke-miterlimit="10" x1="29.084" y1="35.165" x2="43.879" y2="35.165"></line><line display="inline" fill="#000000" stroke="#E0E0E0" stroke-miterlimit="10" x1="29.084" y1="37.65" x2="43.879" y2="37.65"></line><line display="inline" fill="#000000" stroke="#E0E0E0" stroke-miterlimit="10" x1="29.084" y1="26.266" x2="43.879" y2="26.266"></line><line display="inline" fill="#000000" stroke="#E0E0E0" stroke-miterlimit="10" x1="29.084" y1="28.751" x2="43.879" y2="28.751"></line><line display="inline" fill="#000000" stroke="#E0E0E0" stroke-miterlimit="10" x1="29.084" y1="17.367" x2="43.879" y2="17.367"></line><line display="inline" fill="#000000" stroke="#E0E0E0" stroke-miterlimit="10" x1="29.084" y1="19.852" x2="43.879" y2="19.852"></line><line display="inline" fill="#000000" stroke="#E0E0E0" stroke-miterlimit="10" x1="29.084" y1="44.065" x2="43.879" y2="44.065"></line><line display="inline" fill="#000000" stroke="#E0E0E0" stroke-miterlimit="10" x1="29.084" y1="46.549" x2="43.879" y2="46.549"></line><line display="inline" fill="#000000" stroke="#DB2B42" stroke-miterlimit="10" x1="21.348" y1="15.424" x2="21.348" y2="20.358"></line><line display="inline" fill="#000000" stroke="#8AD5DD" stroke-miterlimit="10" x1="23.348" y1="16.983" x2="23.348" y2="20.358"></line><line display="inline" fill="#000000" stroke="#DB2B42" stroke-miterlimit="10" x1="25.348" y1="18.571" x2="25.348" y2="20.358"></line><line display="inline" fill="#000000" stroke="#DB2B42" stroke-miterlimit="10" x1="21.348" y1="24.313" x2="21.348" y2="29.247"></line><line display="inline" fill="#000000" stroke="#8AD5DD" stroke-miterlimit="10" x1="23.348" y1="25.871" x2="23.348" y2="29.247"></line><line display="inline" fill="#000000" stroke="#DB2B42" stroke-miterlimit="10" x1="25.348" y1="27.46" x2="25.348" y2="29.247"></line><line display="inline" fill="#000000" stroke="#DB2B42" stroke-miterlimit="10" x1="21.348" y1="33.218" x2="21.348" y2="38.152"></line><line display="inline" fill="#000000" stroke="#8AD5DD" stroke-miterlimit="10" x1="23.348" y1="34.776" x2="23.348" y2="38.152"></line><line display="inline" fill="#000000" stroke="#DB2B42" stroke-miterlimit="10" x1="25.348" y1="36.365" x2="25.348" y2="38.152"></line><line display="inline" fill="#000000" stroke="#DB2B42" stroke-miterlimit="10" x1="21.348" y1="42.117" x2="21.348" y2="47.051"></line><line display="inline" fill="#000000" stroke="#8AD5DD" stroke-miterlimit="10" x1="23.348" y1="43.675" x2="23.348" y2="47.051"></line><line display="inline" fill="#000000" stroke="#DB2B42" stroke-miterlimit="10" x1="25.348" y1="45.264" x2="25.348" y2="47.051"></line><polygon display="inline" fill="#000000" points="43.806,54.661 43.806,49.467 49,49.467  "></polygon></g><g display="none"><circle display="inline" fill="#000000" cx="32" cy="32" r="32"></circle><polyline display="inline" points="50.701,51.17 50.701,11.057 16.724,11.057 16.724,56.361 45.51,56.361 45.51,56.361    50.701,51.17  "></polyline><polygon display="inline" fill="#000000" points="43.806,54.661 15,54.661 15,9.328 49,9.328 49,49.467  "></polygon><line display="inline" fill="#000000" stroke="#E0E0E0" stroke-miterlimit="10" x1="29.084" y1="35.165" x2="43.879" y2="35.165"></line><line display="inline" fill="#000000" stroke="#E0E0E0" stroke-miterlimit="10" x1="29.084" y1="37.65" x2="43.879" y2="37.65"></line><line display="inline" fill="#000000" stroke="#E0E0E0" stroke-miterlimit="10" x1="29.084" y1="26.266" x2="43.879" y2="26.266"></line><line display="inline" fill="#000000" stroke="#E0E0E0" stroke-miterlimit="10" x1="29.084" y1="28.751" x2="43.879" y2="28.751"></line><line display="inline" fill="#000000" stroke="#E0E0E0" stroke-miterlimit="10" x1="29.084" y1="17.367" x2="43.879" y2="17.367"></line><line display="inline" fill="#000000" stroke="#E0E0E0" stroke-miterlimit="10" x1="29.084" y1="19.852" x2="43.879" y2="19.852"></line><line display="inline" fill="#000000" stroke="#E0E0E0" stroke-miterlimit="10" x1="29.084" y1="44.065" x2="43.879" y2="44.065"></line><line display="inline" fill="#000000" stroke="#E0E0E0" stroke-miterlimit="10" x1="29.084" y1="46.549" x2="43.879" y2="46.549"></line><line display="inline" fill="none" stroke="#000000" stroke-miterlimit="10" x1="21.348" y1="15.424" x2="21.348" y2="20.358"></line><line display="inline" fill="#000000" stroke="#8AD5DD" stroke-miterlimit="10" x1="23.348" y1="16.983" x2="23.348" y2="20.358"></line><line display="inline" fill="none" stroke="#000000" stroke-miterlimit="10" x1="25.348" y1="18.571" x2="25.348" y2="20.358"></line><line display="inline" fill="none" stroke="#000000" stroke-miterlimit="10" x1="21.348" y1="24.313" x2="21.348" y2="29.247"></line><line display="inline" fill="#000000" stroke="#8AD5DD" stroke-miterlimit="10" x1="23.348" y1="25.871" x2="23.348" y2="29.247"></line><line display="inline" fill="none" stroke="#000000" stroke-miterlimit="10" x1="25.348" y1="27.46" x2="25.348" y2="29.247"></line><line display="inline" fill="none" stroke="#000000" stroke-miterlimit="10" x1="21.348" y1="33.218" x2="21.348" y2="38.152"></line><line display="inline" fill="#000000" stroke="#8AD5DD" stroke-miterlimit="10" x1="23.348" y1="34.776" x2="23.348" y2="38.152"></line><line display="inline" fill="none" stroke="#000000" stroke-miterlimit="10" x1="25.348" y1="36.365" x2="25.348" y2="38.152"></line><line display="inline" fill="none" stroke="#000000" stroke-miterlimit="10" x1="21.348" y1="42.117" x2="21.348" y2="47.051"></line><line display="inline" fill="#000000" stroke="#8AD5DD" stroke-miterlimit="10" x1="23.348" y1="43.675" x2="23.348" y2="47.051"></line><line display="inline" fill="none" stroke="#000000" stroke-miterlimit="10" x1="25.348" y1="45.264" x2="25.348" y2="47.051"></line><polygon display="inline" fill="#000000" points="43.806,54.661 43.806,49.467 49,49.467  "></polygon></g><g display="none"><polygon display="inline" fill="#000000" points="37.042,64.005 -3.624,64.005 -3.624,0.005 44.376,0.005 44.376,56.672  "></polygon><rect x="16.259" y="35.776" display="inline" fill="#000000" width="20.888" height="1.412"></rect><rect x="16.259" y="39.284" display="inline" fill="#000000" width="20.888" height="1.412"></rect><rect x="16.259" y="23.213" display="inline" fill="#000000" width="20.888" height="1.412"></rect><rect x="16.259" y="26.72" display="inline" fill="#000000" width="20.888" height="1.412"></rect><rect x="16.259" y="10.649" display="inline" fill="#000000" width="20.888" height="1.412"></rect><rect x="16.259" y="14.157" display="inline" fill="#000000" width="20.888" height="1.412"></rect><rect x="16.259" y="48.339" display="inline" fill="#000000" width="20.888" height="1.412"></rect><rect x="16.259" y="51.847" display="inline" fill="#000000" width="20.888" height="1.412"></rect><rect x="4.632" y="8.611" display="inline" fill="#000000" width="1.412" height="6.966"></rect><rect x="7.456" y="10.812" display="inline" width="1.412" height="4.766"></rect><rect x="10.278" y="13.055" display="inline" fill="#000000" width="1.412" height="2.523"></rect><rect x="4.632" y="21.16" display="inline" fill="#000000" width="1.412" height="6.966"></rect><rect x="7.456" y="23.361" display="inline" width="1.412" height="4.766"></rect><rect x="10.278" y="25.604" display="inline" fill="#000000" width="1.412" height="2.523"></rect><rect x="4.632" y="33.732" display="inline" fill="#000000" width="1.412" height="6.965"></rect><rect x="7.456" y="35.931" display="inline" width="1.412" height="4.766"></rect><rect x="10.278" y="38.174" display="inline" fill="#000000" width="1.412" height="2.523"></rect><rect x="4.632" y="46.295" display="inline" fill="#000000" width="1.412" height="6.966"></rect><rect x="7.456" y="48.495" display="inline" width="1.412" height="4.766"></rect><rect x="10.278" y="50.738" display="inline" fill="#000000" width="1.412" height="2.523"></rect><polygon display="inline" fill="#000000" points="37.042,64.005 37.042,56.672 44.376,56.672  "></polygon></g><g><path d="M8,64h40.667L56,56.667V0H8V64z M48.879,61.807v-4.928h4.928L48.879,61.807z M9.4,1.4h45.2v54.079h-7.121V62.6H9.4V1.4z"></path><rect x="27.884" y="35.776" width="20.887" height="1.4"></rect><rect x="27.884" y="39.284" width="20.887" height="1.4"></rect><rect x="27.884" y="23.213" width="20.887" height="1.4"></rect><rect x="27.884" y="26.721" width="20.887" height="1.4"></rect><rect x="27.884" y="10.65" width="20.887" height="1.4"></rect><rect x="27.884" y="14.157" width="20.887" height="1.4"></rect><rect x="27.884" y="48.339" width="20.887" height="1.4"></rect><rect x="27.884" y="51.847" width="20.887" height="1.4"></rect><rect x="16.262" y="8.607" width="1.4" height="6.966"></rect><rect x="19.086" y="10.806" width="1.4" height="4.767"></rect><rect x="21.908" y="13.049" width="1.4" height="2.523"></rect><rect x="16.262" y="21.156" width="1.4" height="6.966"></rect><rect x="19.086" y="23.355" width="1.4" height="4.767"></rect><rect x="21.908" y="25.598" width="1.4" height="2.523"></rect><rect x="16.262" y="33.727" width="1.4" height="6.966"></rect><rect x="19.086" y="35.926" width="1.4" height="4.767"></rect><rect x="21.908" y="38.169" width="1.4" height="2.523"></rect><rect x="16.262" y="46.29" width="1.4" height="6.965"></rect><rect x="19.086" y="48.489" width="1.4" height="4.766"></rect><rect x="21.908" y="50.733" width="1.4" height="2.522"></rect></g><g display="none"><circle display="inline" fill="#000000" cx="32" cy="32" r="32"></circle><polygon display="inline" fill="#000000" points="8.75,0.75 55.513,0.75 55.513,56.087 47.479,63.513 8.75,63.513  "></polygon><polygon display="inline" fill="#000000" points="48.344,56.156 48.375,60.6 11.405,60.6 11.405,3.396 52.6,3.396 52.6,56.156  "></polygon><path display="inline" d="M54.6,1.4v54.687L48.087,62.6H9.4V1.4H54.6 M56,0H8v64h40.667L56,56.667V0L56,0z"></path><polygon display="inline" points="48.879,63.513 47.479,63.513 47.479,55.479 55.513,55.479 55.513,56.879 48.879,56.879  "></polygon><rect x="27.884" y="35.776" display="inline" width="20.887" height="1.4"></rect><rect x="27.884" y="39.284" display="inline" width="20.887" height="1.4"></rect><rect x="27.884" y="23.213" display="inline" width="20.887" height="1.4"></rect><rect x="27.884" y="26.721" display="inline" width="20.887" height="1.4"></rect><rect x="27.884" y="10.65" display="inline" width="20.887" height="1.4"></rect><rect x="27.884" y="14.157" display="inline" width="20.887" height="1.4"></rect><rect x="27.884" y="48.339" display="inline" width="20.887" height="1.4"></rect><rect x="27.884" y="51.847" display="inline" width="20.887" height="1.4"></rect><rect x="16.262" y="8.607" display="inline" width="1.4" height="6.966"></rect><rect x="19.086" y="10.806" display="inline" width="1.4" height="4.767"></rect><rect x="21.908" y="13.049" display="inline" width="1.4" height="2.523"></rect><rect x="16.262" y="21.156" display="inline" width="1.4" height="6.966"></rect><rect x="19.086" y="23.355" display="inline" width="1.4" height="4.767"></rect><rect x="21.908" y="25.598" display="inline" width="1.4" height="2.523"></rect><rect x="16.262" y="33.727" display="inline" width="1.4" height="6.966"></rect><rect x="19.086" y="35.926" display="inline" width="1.4" height="4.767"></rect><rect x="21.908" y="38.169" display="inline" width="1.4" height="2.523"></rect><rect x="16.262" y="46.29" display="inline" width="1.4" height="6.965"></rect><rect x="19.086" y="48.489" display="inline" width="1.4" height="4.766"></rect><rect x="21.908" y="50.733" display="inline" width="1.4" height="2.522"></rect></g></svg>